<?xml version="1.0" encoding="UTF-8" standalone="no"?>
<svg
   xmlns:dc="http://purl.org/dc/elements/1.1/"
   xmlns:cc="http://creativecommons.org/ns#"
   xmlns:rdf="http://www.w3.org/1999/02/22-rdf-syntax-ns#"
   xmlns:svg="http://www.w3.org/2000/svg"
   xmlns="http://www.w3.org/2000/svg"
   xmlns:xlink="http://www.w3.org/1999/xlink"
   xmlns:sodipodi="http://sodipodi.sourceforge.net/DTD/sodipodi-0.dtd"
   xmlns:inkscape="http://www.inkscape.org/namespaces/inkscape"
   id="Layer_1"
   viewBox="0 0 696.12107 294.15155"
   version="1.1"
   sodipodi:docname="ef.svg"
   inkscape:version="0.92.4 (5da689c313, 2019-01-14)"
   width="696.12103"
   height="294.15155">
  <metadata
     id="metadata179">
    <rdf:RDF>
      <cc:Work
         rdf:about="">
        <dc:format>image/svg+xml</dc:format>
        <dc:type
           rdf:resource="http://purl.org/dc/dcmitype/StillImage" />
        <dc:title></dc:title>
      </cc:Work>
    </rdf:RDF>
  </metadata>
  <sodipodi:namedview
     pagecolor="#ffffff"
     bordercolor="#666666"
     borderopacity="1"
     objecttolerance="10"
     gridtolerance="10"
     guidetolerance="10"
     inkscape:pageopacity="0"
     inkscape:pageshadow="2"
     inkscape:window-width="1920"
     inkscape:window-height="1009"
     id="namedview177"
     showgrid="false"
     inkscape:zoom="1.0849391"
     inkscape:cx="164.22387"
     inkscape:cy="168.29187"
     inkscape:window-x="-8"
     inkscape:window-y="-8"
     inkscape:window-maximized="1"
     inkscape:current-layer="Layer_1"
     fit-margin-top="0"
     fit-margin-left="0"
     fit-margin-right="0"
     fit-margin-bottom="0" />
  <defs
     id="defs10">
    <style
       id="style2">.cls-1{fill:url(#linear-gradient);}.cls-2{fill:#022341;}.cls-3,.cls-4{fill:#fff;}.cls-5{fill:#31dd74;}.cls-6{fill:#3ee680;}.cls-7{fill:#080444;}.cls-8{fill:#39e180;}.cls-9{fill:#6cf1c7;}.cls-9,.cls-4{stroke:#022341;stroke-linecap:round;stroke-miterlimit:10;stroke-width:4.63px;}.cls-10{fill:url(#linear-gradient-2);}</style>
    <linearGradient
       id="linear-gradient"
       x1="404.14001"
       y1="898.65002"
       x2="905.32001"
       y2="898.65002"
       gradientUnits="userSpaceOnUse">
      <stop
         offset="0"
         stop-color="#18725f"
         id="stop4" />
      <stop
         offset="1"
         stop-color="#043b4d"
         id="stop6" />
    </linearGradient>
    <linearGradient
       id="linear-gradient-2"
       x1="223.14999"
       y1="1038.95"
       x2="836.19"
       y2="1038.95"
       xlink:href="#linear-gradient" />
    <clipPath
       clipPathUnits="userSpaceOnUse"
       id="clipPath853">
      <rect
         style="opacity:1;vector-effect:none;fill:#000000;fill-opacity:1;stroke:none;stroke-width:2.26771665;stroke-linecap:round;stroke-linejoin:round;stroke-miterlimit:4;stroke-dasharray:none;stroke-dashoffset:0;stroke-opacity:1;paint-order:markers stroke fill"
         id="rect855"
         width="1110.5784"
         height="291.98306"
         x="232.02228"
         y="294.57715" />
    </clipPath>
    <style
       id="style4534">
      .cls-1 {
        fill: url(#linear-gradient);
      }

      .cls-2 {
        fill: url(#linear-gradient-2);
      }

      .cls-3 {
        fill: url(#linear-gradient-3);
      }

      .cls-4 {
        fill: url(#linear-gradient-4);
      }

      .cls-5 {
        fill: url(#linear-gradient-5);
      }

      .cls-6 {
        fill: url(#linear-gradient-6);
      }

      .cls-7 {
        fill: #30354b;
      }
    </style>
    <linearGradient
       gradientUnits="userSpaceOnUse"
       gradientTransform="matrix(1,0,0,-1,0,165.733)"
       y2="16.676001"
       x2="56.306999"
       y1="74.024002"
       x1="-1.041"
       id="linear-gradient-27">
      <stop
         id="stop4536"
         stop-color="#f47d51"
         offset="0" />
      <stop
         id="stop4538"
         stop-color="#df72ac"
         offset="0.96" />
    </linearGradient>
    <linearGradient
       gradientUnits="userSpaceOnUse"
       gradientTransform="matrix(1,0,0,-1,0,165.733)"
       y2="35.720001"
       x2="75.388"
       y1="54.938"
       x1="56.169998"
       id="linear-gradient-2-1">
      <stop
         id="stop4541"
         stop-color="#f15d4c"
         offset="0" />
      <stop
         id="stop4543"
         stop-color="#c36ca1"
         offset="1" />
    </linearGradient>
    <linearGradient
       gradientUnits="userSpaceOnUse"
       gradientTransform="matrix(1,0,0,-1,0,165.733)"
       y2="69.485001"
       x2="70.296997"
       y1="102.188"
       x1="37.594002"
       id="linear-gradient-3">
      <stop
         id="stop4546"
         stop-color="#b46947"
         offset="0" />
      <stop
         id="stop4548"
         stop-color="#ae5262"
         offset="0.896" />
    </linearGradient>
    <linearGradient
       gradientUnits="userSpaceOnUse"
       gradientTransform="matrix(1,0,0,-1,0,165.733)"
       y2="84.677002"
       x2="70.002998"
       y1="165.733"
       x1="70.002998"
       id="linear-gradient-4">
      <stop
         id="stop4551"
         stop-color="#ffd663"
         offset="0" />
      <stop
         id="stop4553"
         stop-color="#f26c7d"
         offset="1" />
    </linearGradient>
    <linearGradient
       gradientUnits="userSpaceOnUse"
       gradientTransform="matrix(1,0,0,-1,0,165.733)"
       y2="106.543"
       x2="42.049999"
       y1="133.77499"
       x1="14.818"
       id="linear-gradient-5">
      <stop
         id="stop4556"
         stop-color="#fff171"
         offset="0" />
      <stop
         id="stop4558"
         stop-color="#fab382"
         offset="1" />
    </linearGradient>
    <linearGradient
       gradientUnits="userSpaceOnUse"
       gradientTransform="matrix(1,0,0,-1,0,165.733)"
       y2="64.834"
       x2="56.526001"
       y1="103.018"
       x1="18.341999"
       id="linear-gradient-6">
      <stop
         id="stop4561"
         stop-color="#d48a3d"
         offset="0" />
      <stop
         id="stop4563"
         stop-color="#db474e"
         offset="0.795" />
    </linearGradient>
    <style
       id="style2-3">.cls-1{fill:url(#linear-gradient);}.cls-2{fill:#022341;}.cls-3,.cls-4{fill:#fff;}.cls-5{fill:#31dd74;}.cls-6{fill:#3ee680;}.cls-7{fill:#080444;}.cls-8{fill:#39e180;}.cls-9{fill:#6cf1c7;}.cls-9,.cls-4{stroke:#022341;stroke-linecap:round;stroke-miterlimit:10;stroke-width:4.63px;}.cls-10{fill:url(#linear-gradient-2);}</style>
  </defs>
  <polygon
     class="cls-1"
     points="0,90.668 46.775,120.463 46.775,158.588 "
     id="polygon4568"
     style="fill:url(#linear-gradient-27);stroke:none"
     transform="scale(1.854816)" />
  <polygon
     class="cls-2"
     points="46.775,120.463 93.231,90.668 46.775,158.588 "
     id="polygon4570"
     style="fill:url(#linear-gradient-2-1);stroke:none"
     transform="scale(1.854816)" />
  <polygon
     style="fill:url(#linear-gradient-3);stroke:none"
     class="cls-3"
     points="46.775,110.851 93.231,81.056 46.775,54.465 "
     id="polygon4572"
     transform="scale(1.854816)" />
  <polygon
     style="fill:url(#linear-gradient-4);stroke:none;stroke-width:4.63000011px;stroke-linecap:round;stroke-miterlimit:10"
     class="cls-4"
     points="46.775,54.465 93.231,81.056 46.775,0 "
     id="polygon4574"
     transform="scale(1.854816)" />
  <polygon
     style="fill:url(#linear-gradient-5);stroke:none"
     class="cls-5"
     points="0,81.056 46.775,0 46.775,54.465 "
     id="polygon4576"
     transform="scale(1.854816)" />
  <polygon
     style="fill:url(#linear-gradient-6);stroke:none"
     class="cls-6"
     points="0,81.056 46.775,54.465 46.775,110.851 "
     id="polygon4578"
     transform="scale(1.854816)" />
  <path
     id="path4580"
     d="m 215.7485,53.622731 a 27.473535,27.473535 0 0 1 3.0289,-13.091292 21.630864,21.630864 0 0 1 8.4598,-8.81594 24.784051,24.784051 0 0 1 12.5571,-3.116091 23.48939,23.48939 0 0 1 12.2418,3.205122 22.200293,22.200293 0 0 1 8.4172,9.001422 28.020705,28.020705 0 0 1 3.0289,13.180322 v 3.73931 h -34.9985 a 10.02899,10.02899 0 0 0 3.385,7.215234 11.894935,11.894935 0 0 0 8.1927,2.759966 14.16152,14.16152 0 0 0 6.5883,-1.5599 25.316384,25.316384 0 0 0 6.5902,-5.378967 l 7.9275,8.103691 a 29.88665,29.88665 0 0 1 -9.441,7.079833 26.841042,26.841042 0 0 1 -11.665,2.537388 25.461059,25.461059 0 0 1 -12.7352,-3.11609 21.515866,21.515866 0 0 1 -8.5488,-8.771425 27.011685,27.011685 0 0 1 -3.0289,-12.972583 z m 34.9095,-5.165663 a 9.3056119,9.3056119 0 0 0 -3.4296,-6.491856 12.226947,12.226947 0 0 0 -14.9146,-0.08903 10.757933,10.757933 0 0 0 -3.6521,6.590161 z"
     class="cls-7"
     inkscape:connector-curvature="0"
     style="fill:#ffffff;stroke-width:1.85481596" />
  <path
     id="path4582"
     d="m 271.584,53.533699 a 27.01725,27.01725 0 0 1 3.0289,-12.957744 21.903522,21.903522 0 0 1 8.5044,-8.815941 24.574457,24.574457 0 0 1 12.5125,-3.153187 22.842059,22.842059 0 0 1 14.2469,4.54059 22.461822,22.461822 0 0 1 8.1055,12.200979 l -12.29,3.383185 a 11.587036,11.587036 0 0 0 -3.385,-6.189521 9.5356091,9.5356091 0 0 0 -6.6774,-2.270295 10.331325,10.331325 0 0 0 -8.3281,3.52415 14.617805,14.617805 0 0 0 -2.9825,9.750768 14.614095,14.614095 0 0 0 2.9825,9.750768 10.325761,10.325761 0 0 0 8.3281,3.52415 9.5356091,9.5356091 0 0 0 6.6774,-2.270295 11.587036,11.587036 0 0 0 3.385,-6.189521 l 12.29,3.383185 a 22.454402,22.454402 0 0 1 -8.1055,12.200979 22.842059,22.842059 0 0 1 -14.2469,4.54059 24.574457,24.574457 0 0 1 -12.5125,-3.153187 21.886829,21.886829 0 0 1 -8.5044,-8.815941 27.006121,27.006121 0 0 1 -3.0289,-12.983712 z"
     class="cls-7"
     inkscape:connector-curvature="0"
     style="fill:#ffffff;stroke-width:1.85481596" />
  <path
     id="path4584"
     d="m 325.6389,53.533699 a 27.01725,27.01725 0 0 1 3.0289,-12.957744 21.903522,21.903522 0 0 1 8.5044,-8.815941 26.523869,26.523869 0 0 1 25.1123,0 21.903522,21.903522 0 0 1 8.5043,8.815941 27.037653,27.037653 0 0 1 3.029,12.957744 27.028379,27.028379 0 0 1 -3.029,12.957745 21.886829,21.886829 0 0 1 -8.5043,8.81594 26.523869,26.523869 0 0 1 -25.1123,0 21.886829,21.886829 0 0 1 -8.5044,-8.81594 27.006121,27.006121 0 0 1 -3.0289,-12.957745 z m 35.4437,0 a 14.608531,14.608531 0 0 0 -2.9844,-9.750767 10.431485,10.431485 0 0 0 -8.4134,-3.524151 10.325761,10.325761 0 0 0 -8.3263,3.524151 14.608531,14.608531 0 0 0 -2.9844,9.750767 14.604821,14.604821 0 0 0 2.9844,9.750768 11.613003,11.613003 0 0 0 16.6933,-0.04451 14.504661,14.504661 0 0 0 3.0308,-9.706253 z"
     class="cls-7"
     inkscape:connector-curvature="0"
     style="fill:#ffffff;stroke-width:1.85481596" />
  <path
     id="path4586"
     d="m 380.9403,61.548359 11.5777,-2.670935 a 12.121223,12.121223 0 0 0 4.4961,6.812739 13.666284,13.666284 0 0 0 8.2372,2.359326 17.081001,17.081001 0 0 0 6.8128,-1.068374 3.3386688,3.3386688 0 0 0 2.3611,-3.028914 3.7374542,3.7374542 0 0 0 -2.4112,-3.4277 39.043877,39.043877 0 0 0 -8.8178,-2.448357 q -10.5094,-1.958686 -15.0055,-5.432756 a 11.383006,11.383006 0 0 1 -4.4979,-9.52819 12.195415,12.195415 0 0 1 2.4947,-7.569504 16.101658,16.101658 0 0 1 6.9964,-5.126712 27.180474,27.180474 0 0 1 10.2868,-1.825139 25.60759,25.60759 0 0 1 14.0706,3.917372 19.271538,19.271538 0 0 1 8.2818,10.420356 l -10.9527,3.561247 a 11.056558,11.056558 0 0 0 -4.3199,-5.521787 12.79823,12.79823 0 0 0 -7.1688,-1.958686 11.613003,11.613003 0 0 0 -5.52,1.11289 3.4017325,3.4017325 0 0 0 -2.0495,3.07343 q 0,1.780623 2.2703,2.893513 a 35.152473,35.152473 0 0 0 8.2372,2.181263 q 10.8674,2.049572 15.5397,5.655334 a 11.937596,11.937596 0 0 1 4.6759,10.016007 11.94316,11.94316 0 0 1 -2.6264,7.66039 16.593184,16.593184 0 0 1 -7.4805,5.074776 32.357265,32.357265 0 0 1 -11.1771,1.780624 27.219425,27.219425 0 0 1 -15.9848,-4.451559 20.608861,20.608861 0 0 1 -8.3262,-12.460654 z"
     class="cls-7"
     inkscape:connector-curvature="0"
     style="fill:#ffffff;stroke-width:1.85481596" />
  <path
     id="path4588"
     d="M 451.4622,75.262869 432.6785,29.934875 h 13.3547 l 11.7521,30.188986 h 0.1855 l 11.6686,-30.188986 h 13.3547 l -27.429,67.235226 h -13.2675 z"
     class="cls-7"
     inkscape:connector-curvature="0"
     style="fill:#ffffff;stroke-width:1.85481596" />
  <path
     id="path4590"
     d="m 485.4851,61.548359 11.5778,-2.670935 a 12.130497,12.130497 0 0 0 4.496,6.812739 13.671849,13.671849 0 0 0 8.2391,2.359326 17.075436,17.075436 0 0 0 6.8109,-1.068374 3.3386688,3.3386688 0 0 0 2.3612,-3.028914 3.7374542,3.7374542 0 0 0 -2.4113,-3.4277 38.982668,38.982668 0 0 0 -8.8178,-2.448357 q -10.5056,-1.958686 -15.0054,-5.432756 a 11.383006,11.383006 0 0 1 -4.4979,-9.52819 12.206544,12.206544 0 0 1 2.4947,-7.569504 16.107222,16.107222 0 0 1 6.9908,-5.121147 27.173054,27.173054 0 0 1 10.2868,-1.825139 25.613154,25.613154 0 0 1 14.0706,3.917371 19.267829,19.267829 0 0 1 8.2799,10.420357 l -10.9434,3.561246 a 11.047284,11.047284 0 0 0 -4.3199,-5.521787 12.777827,12.777827 0 0 0 -7.167,-1.958686 11.625987,11.625987 0 0 0 -5.5218,1.11289 3.3998777,3.3998777 0 0 0 -2.0403,3.07343 q 0,1.780623 2.2685,2.893513 a 35.174731,35.174731 0 0 0 8.2391,2.181264 q 10.8636,2.049571 15.5396,5.655334 a 11.941305,11.941305 0 0 1 4.6742,10.016006 11.932031,11.932031 0 0 1 -2.6265,7.66039 16.593184,16.593184 0 0 1 -7.4804,5.074777 32.353555,32.353555 0 0 1 -11.1753,1.780623 27.224989,27.224989 0 0 1 -15.9867,-4.451558 20.608861,20.608861 0 0 1 -8.3355,-12.466219 z"
     class="cls-7"
     inkscape:connector-curvature="0"
     style="fill:#ffffff;stroke-width:1.85481596" />
  <path
     id="path4592"
     d="m 561.7162,41.33272 v 18.969203 a 4.63704,4.63704 0 0 0 1.1129,3.472216 5.2454196,5.2454196 0 0 0 3.6985,1.070228 h 10.7746 v 12.288156 h -11.932 A 17.954619,17.954619 0 0 1 553.2564,73.435875 13.189597,13.189597 0 0 1 548.9903,62.883827 V 41.33272 H 537.4125 V 29.934875 h 11.5778 V 17.911958 h 12.7352 v 12.022917 h 18.5222 V 41.33272 Z"
     class="cls-7"
     inkscape:connector-curvature="0"
     style="fill:#ffffff;stroke-width:1.85481596" />
  <path
     id="path4594"
     d="m 588.7854,53.622731 a 27.473535,27.473535 0 0 1 3.0289,-13.091292 21.630864,21.630864 0 0 1 8.4598,-8.814085 24.782197,24.782197 0 0 1 12.5553,-3.116091 23.491245,23.491245 0 0 1 12.2417,3.205122 22.200293,22.200293 0 0 1 8.419,8.999567 28.020705,28.020705 0 0 1 3.029,13.180322 v 3.73931 h -35.0023 a 10.016006,10.016006 0 0 0 3.3832,7.215234 11.902354,11.902354 0 0 0 8.1927,2.759966 14.180068,14.180068 0 0 0 6.5902,-1.5599 25.310819,25.310819 0 0 0 6.5883,-5.378967 l 7.9275,8.103691 a 29.88665,29.88665 0 0 1 -9.441,7.079833 26.841042,26.841042 0 0 1 -11.665,2.537388 25.461059,25.461059 0 0 1 -12.7351,-3.11609 21.502882,21.502882 0 0 1 -8.5489,-8.771425 27.011685,27.011685 0 0 1 -3.0233,-12.972583 z m 34.9095,-5.165663 a 9.3093215,9.3093215 0 0 0 -3.4277,-6.491856 12.230657,12.230657 0 0 0 -14.9165,-0.08903 10.767207,10.767207 0 0 0 -3.6521,6.590161 z"
     class="cls-7"
     inkscape:connector-curvature="0"
     style="fill:#ffffff;stroke-width:1.85481596" />
  <path
     id="path4596"
     d="m 645.0661,29.934875 h 11.2197 v 4.095434 h 0.1855 a 10.470436,10.470436 0 0 1 3.8729,-3.694793 10.665192,10.665192 0 0 1 5.2083,-1.298372 10.28681,10.28681 0 0 1 8.9959,5.252839 h 0.1854 a 11.221637,11.221637 0 0 1 9.7953,-5.252839 10.611402,10.611402 0 0 1 8.3708,3.650278 13.91112,13.91112 0 0 1 3.207,9.52819 V 77.132523 H 684.3511 V 44.450665 a 4.2289805,4.2289805 0 0 0 -1.0684,-3.117945 4.0991434,4.0991434 0 0 0 -3.0289,-1.068374 3.8691462,3.8691462 0 0 0 -2.9826,1.20192 4.5906696,4.5906696 0 0 0 -1.1129,3.251493 V 77.132523 H 665.0294 V 44.450665 a 4.3718013,4.3718013 0 0 0 -1.0238,-3.07343 3.7355994,3.7355994 0 0 0 -2.8935,-1.112889 4.1288204,4.1288204 0 0 0 -3.118,1.20192 4.4923644,4.4923644 0 0 0 -1.1574,3.251493 v 32.414764 h -11.754 z"
     class="cls-7"
     inkscape:connector-curvature="0"
     style="fill:#ffffff;stroke-width:1.85481596" />
  <path
     id="path4598"
     d="m 216.9968,157.99879 11.5759,-2.67279 a 12.104529,12.104529 0 0 0 4.4979,6.81274 13.649591,13.649591 0 0 0 8.2373,2.36118 17.075436,17.075436 0 0 0 6.8108,-1.06837 3.3386688,3.3386688 0 0 0 2.3612,-3.02706 3.7393091,3.7393091 0 0 0 -2.4112,-3.42956 38.921459,38.921459 0 0 0 -8.816,-2.44835 q -10.5112,-1.95869 -15.0073,-5.43276 a 11.379296,11.379296 0 0 1 -4.4961,-9.52819 12.204689,12.204689 0 0 1 2.4929,-7.5695 16.118351,16.118351 0 0 1 6.9908,-5.12115 27.173054,27.173054 0 0 1 10.2868,-1.82514 25.613154,25.613154 0 0 1 14.0706,3.91737 19.267829,19.267829 0 0 1 8.2799,10.42036 l -10.9526,3.5631 a 11.050994,11.050994 0 0 0 -4.3181,-5.52364 12.79823,12.79823 0 0 0 -7.1707,-1.95869 11.622277,11.622277 0 0 0 -5.5199,1.11289 3.3998777,3.3998777 0 0 0 -2.0403,3.07343 q 0,1.78062 2.2703,2.89351 a 35.219246,35.219246 0 0 0 8.2372,2.18127 q 10.8637,2.05142 15.5397,5.65533 a 12.818633,12.818633 0 0 1 2.0403,17.67825 16.587619,16.587619 0 0 1 -7.4786,5.07478 32.372104,32.372104 0 0 1 -11.1772,1.78062 27.21757,27.21757 0 0 1 -15.9866,-4.45156 20.588458,20.588458 0 0 1 -8.317,-12.46807 z"
     class="cls-7"
     inkscape:connector-curvature="0"
     style="fill:#ffffff;stroke-width:1.85481596" />
  <path
     id="path4600"
     d="m 270.6937,157.55364 v -31.16091 h 12.7352 v 28.2303 q 0,8.63973 8.5488,8.63787 a 8.0684496,8.0684496 0 0 0 6.1005,-2.36118 8.6657004,8.6657004 0 0 0 2.2703,-6.27669 v -28.23772 h 12.7444 v 47.19765 H 300.892 v -4.18632 h -0.1762 a 13.755315,13.755315 0 0 1 -5.3883,4.00825 17.570672,17.570672 0 0 1 -7.1689,1.51353 q -8.3726,0 -12.9132,-4.5851 a 17.374061,17.374061 0 0 1 -4.5517,-12.77968 z"
     class="cls-7"
     inkscape:connector-curvature="0"
     style="fill:#ffffff;stroke-width:1.85481596" />
  <path
     id="path4602"
     d="m 327.4214,126.38531 h 12.1954 v 4.09543 h 0.1762 a 17.683816,17.683816 0 0 1 13.2712,-5.4309 20.51612,20.51612 0 0 1 11.1753,3.11609 20.977969,20.977969 0 0 1 7.7012,8.77143 29.395124,29.395124 0 0 1 2.7637,13.04677 29.042709,29.042709 0 0 1 -2.7637,12.8242 21.419415,21.419415 0 0 1 -7.7476,8.90312 20.460475,20.460475 0 0 1 -11.3144,3.20512 19.781613,19.781613 0 0 1 -7.2133,-1.24644 15.248442,15.248442 0 0 1 -5.3438,-3.38318 h -0.1762 v 23.33173 h -12.7351 z m 34.5515,23.59882 a 14.543612,14.543612 0 0 0 -3.0289,-9.66174 10.327615,10.327615 0 0 0 -8.3689,-3.60761 10.17923,10.17923 0 0 0 -7.347,2.9844 9.7303647,9.7303647 0 0 0 -3.0715,7.25789 v 6.14315 a 9.3297245,9.3297245 0 0 0 1.4245,4.9876 10.644789,10.644789 0 0 0 3.9618,3.73931 11.331071,11.331071 0 0 0 5.6554,1.42636 9.5671409,9.5671409 0 0 0 7.8811,-3.60762 14.992478,14.992478 0 0 0 2.8935,-9.66174 z"
     class="cls-7"
     inkscape:connector-curvature="0"
     style="fill:#ffffff;stroke-width:1.85481596" />
  <path
     id="path4604"
     d="m 383.2551,126.38531 h 12.2009 v 4.09543 h 0.1855 a 17.680106,17.680106 0 0 1 13.2694,-5.4309 20.51612,20.51612 0 0 1 11.1752,3.11609 20.97055,20.97055 0 0 1 7.7031,8.77143 29.395124,29.395124 0 0 1 2.7618,13.04677 29.042709,29.042709 0 0 1 -2.7618,12.8242 21.419415,21.419415 0 0 1 -7.7476,8.90312 20.467895,20.467895 0 0 1 -11.3143,3.20512 19.763064,19.763064 0 0 1 -7.2116,-1.24644 15.209491,15.209491 0 0 1 -5.3437,-3.38318 h -0.1855 v 23.33173 h -12.7351 z m 34.5533,23.59882 a 14.543612,14.543612 0 0 0 -3.0289,-9.66174 10.335035,10.335035 0 0 0 -8.3708,-3.60761 10.18294,10.18294 0 0 0 -7.3469,2.9844 9.737784,9.737784 0 0 0 -3.0716,7.25789 v 6.14315 a 9.344563,9.344563 0 0 0 1.4245,4.9876 10.644789,10.644789 0 0 0 3.9619,3.73931 11.336635,11.336635 0 0 0 5.6554,1.42636 9.5671409,9.5671409 0 0 0 7.8811,-3.60762 14.992478,14.992478 0 0 0 2.8953,-9.66174 z"
     class="cls-7"
     inkscape:connector-curvature="0"
     style="fill:#ffffff;stroke-width:1.85481596" />
  <path
     id="path4606"
     d="m 439.0906,149.98413 a 27.011685,27.011685 0 0 1 3.0289,-12.95774 21.886829,21.886829 0 0 1 8.5043,-8.81594 26.523869,26.523869 0 0 1 25.1124,0 21.903522,21.903522 0 0 1 8.5043,8.81594 29.2319,29.2319 0 0 1 0,25.91549 21.886829,21.886829 0 0 1 -8.5043,8.81594 26.523869,26.523869 0 0 1 -25.1124,0 21.886829,21.886829 0 0 1 -8.5043,-8.81594 27.006121,27.006121 0 0 1 -3.0289,-12.95775 z m 35.4437,0 a 14.608531,14.608531 0 0 0 -2.9844,-9.75077 10.431485,10.431485 0 0 0 -8.4153,-3.52415 10.322051,10.322051 0 0 0 -8.3244,3.52415 14.606676,14.606676 0 0 0 -2.9826,9.75077 14.601112,14.601112 0 0 0 2.9826,9.75077 11.613003,11.613003 0 0 0 16.6933,-0.0445 14.504661,14.504661 0 0 0 3.0308,-9.70625 z"
     class="cls-7"
     inkscape:connector-curvature="0"
     style="fill:#ffffff;stroke-width:1.85481596" />
  <path
     id="path4608"
     d="m 497.0647,126.38531 h 12.1991 v 4.36252 h 0.1855 a 17.830346,17.830346 0 0 1 13.7164,-5.69799 16.322381,16.322381 0 0 1 10.5966,3.60576 18.972913,18.972913 0 0 1 6.234,9.84166 l -11.9339,3.91737 a 8.1611904,8.1611904 0 0 0 -8.4598,-5.78888 9.2518222,9.2518222 0 0 0 -7.3024,2.80633 11.18454,11.18454 0 0 0 -2.4929,7.7012 v 26.44968 h -12.7352 z"
     class="cls-7"
     inkscape:connector-curvature="0"
     style="fill:#ffffff;stroke-width:1.85481596" />
  <path
     id="path4610"
     d="m 570.6212,137.78315 v 18.9692 a 4.63704,4.63704 0 0 0 1.1128,3.47222 5.2342908,5.2342908 0 0 0 3.6967,1.06837 h 10.7765 v 12.29002 h -11.9339 a 17.962038,17.962038 0 0 1 -12.112,-3.6948 13.195161,13.195161 0 0 1 -4.2753,-10.55205 v -21.55296 h -11.5759 v -11.39784 h 11.5759 v -12.02292 h 12.737 v 12.02292 h 18.5222 v 11.39784 z"
     class="cls-7"
     inkscape:connector-curvature="0"
     style="fill:#ffffff;stroke-width:1.85481596" />
  <path
     id="path4612"
     d="m 217.531,222.83574 h 12.1991 v 4.09729 h 0.1855 a 17.685671,17.685671 0 0 1 13.2693,-5.43461 20.51241,20.51241 0 0 1 11.1753,3.11794 20.985388,20.985388 0 0 1 7.7049,8.77143 29.424801,29.424801 0 0 1 2.76,13.04677 29.066822,29.066822 0 0 1 -2.76,12.8242 21.423125,21.423125 0 0 1 -7.7494,8.90312 20.46604,20.46604 0 0 1 -11.3144,3.20512 19.774193,19.774193 0 0 1 -7.2134,-1.24644 15.248442,15.248442 0 0 1 -5.3437,-3.38318 h -0.1762 v 23.33173 h -12.7352 z m 34.5515,23.59882 a 14.543612,14.543612 0 0 0 -3.0271,-9.66173 10.344309,10.344309 0 0 0 -8.3708,-3.60762 10.171811,10.171811 0 0 0 -7.3469,2.9844 9.7340744,9.7340744 0 0 0 -3.0716,7.25789 v 6.14315 a 9.3297245,9.3297245 0 0 0 1.4245,4.9876 10.644789,10.644789 0 0 0 3.9619,3.73931 11.331071,11.331071 0 0 0 5.6554,1.42636 9.5689957,9.5689957 0 0 0 7.8811,-3.60762 14.992478,14.992478 0 0 0 2.8935,-9.66174 z"
     class="cls-7"
     inkscape:connector-curvature="0"
     style="fill:#ffffff;stroke-width:1.85481596" />
  <path
     id="path4614"
     d="m 273.7226,222.83574 h 12.1991 v 4.36253 h 0.1855 a 17.832201,17.832201 0 0 1 13.7127,-5.69985 16.322381,16.322381 0 0 1 10.5965,3.60761 18.95251,18.95251 0 0 1 6.2341,9.8398 l -11.9321,3.91923 a 8.1611904,8.1611904 0 0 0 -8.4598,-5.78888 9.2518222,9.2518222 0 0 0 -7.3024,2.80634 11.177121,11.177121 0 0 0 -2.4947,7.70119 v 26.44968 h -12.7333 z"
     class="cls-7"
     inkscape:connector-curvature="0"
     style="fill:#ffffff;stroke-width:1.85481596" />
  <path
     id="path4616"
     d="m 322.0777,246.43456 a 27.032088,27.032088 0 0 1 3.027,-12.95774 21.918361,21.918361 0 0 1 8.5062,-8.81594 26.507175,26.507175 0 0 1 25.1124,0 21.910941,21.910941 0 0 1 8.5024,8.81594 29.2319,29.2319 0 0 1 0,25.91549 21.886829,21.886829 0 0 1 -8.5043,8.81408 26.523869,26.523869 0 0 1 -25.1123,0 21.886829,21.886829 0 0 1 -8.5062,-8.81594 27.026524,27.026524 0 0 1 -3.0252,-12.95589 z m 35.4436,0 a 14.617805,14.617805 0 0 0 -2.9844,-9.75076 10.435195,10.435195 0 0 0 -8.4153,-3.52415 10.327615,10.327615 0 0 0 -8.3262,3.52415 17.43527,17.43527 0 0 0 0,19.50153 11.613003,11.613003 0 0 0 16.6933,-0.0445 14.504661,14.504661 0 0 0 3.0326,-9.70626 z"
     class="cls-7"
     inkscape:connector-curvature="0"
     style="fill:#ffffff;stroke-width:1.85481596" />
  <path
     id="path4618"
     d="m 381.3854,280.54092 9.7081,-7.38959 a 17.704219,17.704219 0 0 0 5.379,5.37897 13.330563,13.330563 0 0 0 6.7237,1.5599 11.108493,11.108493 0 0 0 7.9256,-2.76182 9.9918938,9.9918938 0 0 0 2.938,-7.65854 v -3.38318 h -0.1762 a 16.489314,16.489314 0 0 1 -5.4772,3.87285 18.218003,18.218003 0 0 1 -6.9908,1.20193 20.608861,20.608861 0 0 1 -11.3534,-3.15319 20.939018,20.939018 0 0 1 -7.6585,-8.81594 29.528671,29.528671 0 0 1 -2.7173,-12.95775 28.564166,28.564166 0 0 1 2.8063,-12.86871 21.901667,21.901667 0 0 1 7.7457,-8.86046 20.236043,20.236043 0 0 1 11.2662,-3.20697 18.210583,18.210583 0 0 1 6.8628,1.15926 15.871661,15.871661 0 0 1 5.2547,3.56124 h 0.1855 v -3.38318 h 12.29 v 47.37571 a 21.024339,21.024339 0 0 1 -2.8954,11.04357 19.822419,19.822419 0 0 1 -8.061,7.47862 27.534744,27.534744 0 0 1 -33.7576,-8.19272 z m 31.9696,-31.0793 v -6.14315 a 9.8305248,9.8305248 0 0 0 -2.849,-7.39329 10.069796,10.069796 0 0 0 -7.3024,-2.75997 9.6135113,9.6135113 0 0 0 -7.8811,3.5631 17.464947,17.464947 0 0 0 0.044,19.32347 9.4595616,9.4595616 0 0 0 7.7476,3.65214 9.808267,9.808267 0 0 0 5.0321,-1.37999 10.611402,10.611402 0 0 0 3.7838,-3.74116 9.7266551,9.7266551 0 0 0 1.4245,-5.12115 z"
     class="cls-7"
     inkscape:connector-curvature="0"
     style="fill:#ffffff;stroke-width:1.85481596" />
  <path
     id="path4620"
     d="m 439.4486,222.83574 h 12.1991 v 4.36253 h 0.1855 a 17.834056,17.834056 0 0 1 13.7145,-5.69985 16.322381,16.322381 0 0 1 10.5966,3.60761 18.95251,18.95251 0 0 1 6.234,9.8398 l -11.932,3.91923 a 8.1611904,8.1611904 0 0 0 -8.4617,-5.78888 9.2481126,9.2481126 0 0 0 -7.3006,2.80634 11.177121,11.177121 0 0 0 -2.4947,7.70119 v 26.44968 H 439.456 Z"
     class="cls-7"
     inkscape:connector-curvature="0"
     style="fill:#ffffff;stroke-width:1.85481596" />
  <path
     id="path4622"
     d="m 488.9592,257.38911 a 12.455089,12.455089 0 0 1 4.4979,-10.2423 q 4.4961,-3.65028 15.0055,-5.34372 a 25.861699,25.861699 0 0 0 7.525,-2.0032 3.3386688,3.3386688 0 0 0 2.005,-2.98255 3.8394691,3.8394691 0 0 0 -1.9605,-3.38504 9.8824596,9.8824596 0 0 0 -5.3419,-1.24643 10.105038,10.105038 0 0 0 -6.6347,2.31481 10.481565,10.481565 0 0 0 -3.6057,6.145 l -11.8449,-2.67093 a 18.334856,18.334856 0 0 1 4.0064,-8.54885 21.204257,21.204257 0 0 1 7.8385,-5.8334 24.976952,24.976952 0 0 1 10.2404,-2.09408 20.402976,20.402976 0 0 1 14.5139,5.07663 17.648574,17.648574 0 0 1 5.4328,13.54016 v 29.92189 h -11.3997 v -5.2547 h -0.1762 a 13.612495,13.612495 0 0 1 -5.7499,4.85406 19.355005,19.355005 0 0 1 -8.3263,1.7361 18.640901,18.640901 0 0 1 -8.2818,-1.78062 13.708945,13.708945 0 0 1 -5.6998,-4.9876 13.095001,13.095001 0 0 1 -2.044,-7.21523 z m 29.5676,-4.89857 v -5.34373 h -0.1855 a 5.5106583,5.5106583 0 0 1 -2.6728,2.13861 32.119849,32.119849 0 0 1 -5.876,1.60256 22.790124,22.790124 0 0 0 -6.8629,2.27029 3.7671313,3.7671313 0 0 0 -1.8696,3.33867 3.4833444,3.4833444 0 0 0 1.6471,3.11795 8.7825538,8.7825538 0 0 0 4.765,1.06837 13.592092,13.592092 0 0 0 5.4327,-1.11289 10.294229,10.294229 0 0 0 4.0955,-3.02706 6.441776,6.441776 0 0 0 1.5265,-4.05277 z"
     class="cls-7"
     inkscape:connector-curvature="0"
     style="fill:#ffffff;stroke-width:1.85481596" />
  <path
     id="path4624"
     d="m 542.3018,222.83574 h 11.2198 v 4.09729 h 0.1855 a 10.503823,10.503823 0 0 1 3.8728,-3.69665 10.680031,10.680031 0 0 1 5.2102,-1.29837 10.288664,10.288664 0 0 1 8.9959,5.25469 h 0.1855 a 11.225346,11.225346 0 0 1 9.7971,-5.25469 10.613257,10.613257 0 0 1 8.3708,3.65213 13.91112,13.91112 0 0 1 3.207,9.53005 v 34.90763 h -11.7559 v -32.68186 a 4.2345449,4.2345449 0 0 0 -1.0683,-3.11794 4.1065626,4.1065626 0 0 0 -3.0289,-1.06837 3.871001,3.871001 0 0 0 -2.9844,1.20377 4.5906696,4.5906696 0 0 0 -1.1129,3.24964 v 32.41476 h -11.1289 v -32.68186 a 4.3736561,4.3736561 0 0 0 -1.0239,-3.07157 3.7318898,3.7318898 0 0 0 -2.8935,-1.11289 4.1195463,4.1195463 0 0 0 -3.1179,1.20378 4.4849451,4.4849451 0 0 0 -1.1575,3.24963 v 32.41477 h -11.7539 z"
     class="cls-7"
     inkscape:connector-curvature="0"
     style="fill:#ffffff;stroke-width:1.85481596" />
</svg>
